<svg width="1070" height="911" viewBox="0 0 1070 911" fill="none" xmlns="http://www.w3.org/2000/svg">
<g filter="url(#filter0_d)">
<path d="M523.229 453.138L533.457 444.886L543.685 436.349L546.023 449.154L548.36 461.96L535.795 457.691L523.229 453.138Z" stroke="url(#paint0_linear)" stroke-width="2" stroke-miterlimit="10"/>
<path d="M522.352 452.854L533.749 444.317L544.854 435.78L546.899 449.439L548.945 463.383L535.503 458.26L522.352 452.854Z" stroke="url(#paint1_linear)" stroke-width="2" stroke-miterlimit="10"/>
<path d="M521.183 452.569L533.749 443.748L546.315 434.926L547.776 449.724L549.529 464.805L535.502 458.83L521.183 452.569Z" stroke="url(#paint2_linear)" stroke-width="2" stroke-miterlimit="10"/>
<path d="M520.307 452.285L534.041 443.179L547.776 434.073L548.945 450.293L550.114 466.228L535.21 459.399L520.307 452.285Z" stroke="url(#paint3_linear)" stroke-width="2" stroke-miterlimit="10"/>
<path d="M519.138 451.716L534.333 442.609L549.529 433.219L550.114 450.577L550.698 467.936L534.918 459.968L519.138 451.716Z" stroke="url(#paint4_linear)" stroke-width="2" stroke-miterlimit="10"/>
<path d="M517.969 451.146L534.626 441.756L551.283 432.65V451.146V469.928L534.626 460.537L517.969 451.146Z" stroke="url(#paint5_linear)" stroke-width="2" stroke-miterlimit="10"/>
<path d="M516.8 450.577L534.918 441.187L553.328 431.796L552.451 451.716L551.867 471.92L534.333 461.391L516.8 450.577Z" stroke="url(#paint6_linear)" stroke-width="2" stroke-miterlimit="10"/>
<path d="M515.339 450.008L535.502 440.333L555.373 430.942L553.912 452.569L552.159 474.196L533.749 461.96L515.339 450.008Z" stroke="url(#paint7_linear)" stroke-width="2" stroke-miterlimit="10"/>
<path d="M514.17 449.154L535.795 439.764L557.712 430.089L555.081 453.423L552.744 476.473L533.457 462.813L514.17 449.154Z" stroke="url(#paint8_linear)" stroke-width="2" stroke-miterlimit="10"/>
<path d="M512.709 448.301L536.379 438.91L560.341 429.519L556.543 454.276L553.036 479.034L532.872 463.667L512.709 448.301Z" stroke="url(#paint9_linear)" stroke-width="2" stroke-miterlimit="10"/>
<path d="M511.248 447.163L536.963 438.057L562.971 428.95L558.296 455.13L553.328 481.595L532.288 464.521L511.248 447.163Z" stroke="url(#paint10_linear)" stroke-width="2" stroke-miterlimit="10"/>
<path d="M509.494 446.024L537.84 437.203L565.894 428.097L559.757 456.553L553.62 484.725L531.411 465.375L509.494 446.024Z" stroke="url(#paint11_linear)" stroke-width="2" stroke-miterlimit="10"/>
<path d="M507.741 444.601L538.425 436.064L569.108 427.528L561.511 457.691L553.62 487.855L530.827 466.228L507.741 444.601Z" stroke="url(#paint12_linear)" stroke-width="2" stroke-miterlimit="10"/>
<path d="M505.988 443.179L539.301 435.211L572.615 427.243L563.264 459.114L553.62 491.27L529.95 467.366L505.988 443.179Z" stroke="url(#paint13_linear)" stroke-width="2" stroke-miterlimit="10"/>
<path d="M504.234 441.756L540.47 434.073L576.414 426.674L565.017 460.822L553.62 494.969L529.074 468.22L504.234 441.756Z" stroke="url(#paint14_linear)" stroke-width="2" stroke-miterlimit="10"/>
<path d="M502.481 439.764L541.347 433.219L580.505 426.389L566.77 462.813L553.328 498.953L527.905 469.358L502.481 439.764Z" stroke="url(#paint15_linear)" stroke-width="2" stroke-miterlimit="10"/>
<path d="M500.436 437.772L542.516 432.081L584.888 426.105L568.816 464.805L553.036 503.222L526.736 470.497L500.436 437.772Z" stroke="url(#paint16_linear)" stroke-width="2" stroke-miterlimit="10"/>
<path d="M498.39 435.495L543.977 430.942L589.564 426.105L570.862 467.082L552.159 507.775L525.275 471.635L498.39 435.495Z" stroke="url(#paint17_linear)" stroke-width="2" stroke-miterlimit="10"/>
<path d="M496.344 432.934L545.438 429.804L594.532 426.389L572.907 469.358L551.282 512.612L523.813 472.773L496.344 432.934Z" stroke="url(#paint18_linear)" stroke-width="2" stroke-miterlimit="10"/>
<path d="M494.007 430.373L547.192 428.381L600.084 426.674L575.245 472.204L550.406 517.734L522.352 473.911L494.007 430.373Z" stroke="url(#paint19_linear)" stroke-width="2" stroke-miterlimit="10"/>
<path d="M491.961 427.243H548.945H605.928L577.29 475.334L548.945 523.426L520.307 475.334L491.961 427.243Z" stroke="url(#paint20_linear)" stroke-width="2" stroke-miterlimit="10"/>
<path d="M489.623 423.828L550.99 426.105L612.065 428.097L579.628 478.749L547.191 529.117L518.553 476.473L489.623 423.828Z" stroke="url(#paint21_linear)" stroke-width="2" stroke-miterlimit="10"/>
<path d="M487.286 420.129L553.036 424.682L618.786 429.235L581.966 482.448L545.146 535.662L516.216 477.895L487.286 420.129Z" stroke="url(#paint22_linear)" stroke-width="2" stroke-miterlimit="10"/>
<path d="M484.948 416.145L555.374 423.259L626.092 430.658L584.304 486.432L542.808 542.207L513.878 479.318L484.948 416.145Z" stroke="url(#paint23_linear)" stroke-width="2" stroke-miterlimit="10"/>
<path d="M482.61 411.592L558.004 422.121L633.69 432.365L586.642 490.701L539.886 549.321L511.248 480.456L482.61 411.592Z" stroke="url(#paint24_linear)" stroke-width="2" stroke-miterlimit="10"/>
<path d="M480.272 406.754L560.926 420.698L641.58 434.642L588.979 495.823L536.379 556.719L508.325 481.879L480.272 406.754Z" stroke="url(#paint25_linear)" stroke-width="2" stroke-miterlimit="10"/>
<path d="M477.935 401.632L564.141 419.56L650.347 437.203L591.318 500.945L532.58 564.687L505.111 483.302L477.935 401.632Z" stroke="url(#paint26_linear)" stroke-width="2" stroke-miterlimit="10"/>
<path d="M475.596 395.941L567.647 418.137L659.406 440.333L593.655 506.921L527.905 573.224L501.897 484.44L475.596 395.941Z" stroke="url(#paint27_linear)" stroke-width="2" stroke-miterlimit="10"/>
<path d="M473.551 389.68L571.446 416.999L669.341 444.317L595.993 513.181L522.645 582.046L498.098 485.863L473.551 389.68Z" stroke="url(#paint28_linear)" stroke-width="2" stroke-miterlimit="10"/>
<path d="M471.213 382.566L575.245 415.576L679.569 448.585L598.038 520.011L516.8 591.436L494.007 487.001L471.213 382.566Z" stroke="url(#paint29_linear)" stroke-width="2" stroke-miterlimit="10"/>
<path d="M469.168 375.168L579.921 414.438L690.381 453.707L600.376 527.409L510.079 601.111L489.623 488.14L469.168 375.168Z" stroke="url(#paint30_linear)" stroke-width="2" stroke-miterlimit="10"/>
<path d="M467.122 367.2L584.596 413.299L702.07 459.683L602.129 535.377L502.481 611.356L484.947 489.278L467.122 367.2Z" stroke="url(#paint31_linear)" stroke-width="2" stroke-miterlimit="10"/>
<path d="M465.369 358.378L589.856 412.446L714.052 466.228L603.883 544.199L494.007 622.169L479.688 490.416L465.369 358.378Z" stroke="url(#paint32_linear)" stroke-width="2" stroke-miterlimit="10"/>
<path d="M463.908 348.988L595.409 411.592L726.909 473.911L605.636 553.874L484.363 633.552L474.135 491.27L463.908 348.988Z" stroke="url(#paint33_linear)" stroke-width="2" stroke-miterlimit="10"/>
<path d="M462.446 338.744L601.545 410.738L740.352 482.733L606.805 564.118L473.551 645.219L467.999 492.124L462.446 338.744Z" stroke="url(#paint34_linear)" stroke-width="2" stroke-miterlimit="10"/>
<path d="M461.569 327.93L607.974 410.169L754.67 492.693L607.974 574.932L461.569 657.455V492.693V327.93Z" stroke="url(#paint35_linear)" stroke-width="2" stroke-miterlimit="10"/>
<path d="M460.693 315.979L614.987 409.885L769.282 503.791L608.851 586.883L448.127 670.26L454.264 492.977L460.693 315.979Z" stroke="url(#paint36_linear)" stroke-width="2" stroke-miterlimit="10"/>
<path d="M460.401 303.173L622.585 409.6L784.77 516.312L609.143 599.689L433.224 683.35L446.666 493.262L460.401 303.173Z" stroke="url(#paint37_linear)" stroke-width="2" stroke-miterlimit="10"/>
<path d="M460.693 289.514L630.768 409.885L801.134 530.255L608.851 613.632L416.567 697.01L438.484 493.262L460.693 289.514Z" stroke="url(#paint38_linear)" stroke-width="2" stroke-miterlimit="10"/>
<path d="M461.277 274.717L639.534 410.169L817.791 545.906L607.974 628.43L398.449 710.953L429.717 492.693L461.277 274.717Z" stroke="url(#paint39_linear)" stroke-width="2" stroke-miterlimit="10"/>
<path d="M462.738 258.781L648.885 411.023L835.324 563.264L606.805 644.365L378.286 725.466L420.366 492.123L462.738 258.781Z" stroke="url(#paint40_linear)" stroke-width="2" stroke-miterlimit="10"/>
<path d="M464.784 241.707L659.113 412.161L853.442 582.615L604.76 661.439L355.785 739.979L410.431 490.985L464.784 241.707Z" stroke="url(#paint41_linear)" stroke-width="2" stroke-miterlimit="10"/>
<path d="M467.414 223.495L669.926 413.869L872.145 604.242L601.837 679.651L331.53 755.06L399.618 489.278L467.414 223.495Z" stroke="url(#paint42_linear)" stroke-width="2" stroke-miterlimit="10"/>
<path d="M471.213 204.145L681.323 416.145L891.432 627.861L598.039 699.002L304.645 770.427L387.929 487.286L471.213 204.145Z" stroke="url(#paint43_linear)" stroke-width="2" stroke-miterlimit="10"/>
<path d="M476.181 183.372L693.888 418.706L911.303 654.04L593.363 720.059L275.13 785.793L375.656 484.725L476.181 183.372Z" stroke="url(#paint44_linear)" stroke-width="2" stroke-miterlimit="10"/>
<path d="M482.025 161.176L706.746 422.121L931.758 683.066L587.226 742.255L242.986 801.16L362.506 481.31L482.025 161.176Z" stroke="url(#paint45_linear)" stroke-width="2" stroke-miterlimit="10"/>
<path d="M489.331 137.842L720.773 426.389L952.507 714.937L579.921 765.874L207.627 816.811L348.479 477.326L489.331 137.842Z" stroke="url(#paint46_linear)" stroke-width="2" stroke-miterlimit="10"/>
<path d="M498.097 112.8L735.676 431.227L973.254 749.654L571.153 790.915L169.053 832.177L333.575 472.489L498.097 112.8Z" stroke="url(#paint47_linear)" stroke-width="2" stroke-miterlimit="10"/>
<path d="M508.326 86.051L751.456 437.203L994.587 788.07L560.926 817.664L127.265 847.259L317.796 466.513L508.326 86.051Z" stroke="url(#paint48_linear)" stroke-width="2" stroke-miterlimit="10"/>
<path d="M520.599 57.8791L768.113 444.032L1015.92 829.901L548.652 845.836L81.3856 861.772L301.138 459.683L520.599 57.8791Z" stroke="url(#paint49_linear)" stroke-width="2" stroke-miterlimit="10"/>
<path d="M534.626 28L785.939 452L1037.25 876H534.626H32L283.313 452L534.626 28Z" stroke="url(#paint50_linear)" stroke-width="2" stroke-miterlimit="10"/>
</g>
<defs>
<filter id="filter0_d" x="0.244812" y="0.0387573" width="1068.76" height="910.961" filterUnits="userSpaceOnUse" color-interpolation-filters="sRGB">
<feFlood flood-opacity="0" result="BackgroundImageFix"/>
<feColorMatrix in="SourceAlpha" type="matrix" values="0 0 0 0 0 0 0 0 0 0 0 0 0 0 0 0 0 0 127 0" result="hardAlpha"/>
<feOffset dy="4"/>
<feGaussianBlur stdDeviation="15"/>
<feComposite in2="hardAlpha" operator="out"/>
<feColorMatrix type="matrix" values="0 0 0 0 0.729412 0 0 0 0 0.505882 0 0 0 0 0.67451 0 0 0 1 0"/>
<feBlend mode="normal" in2="BackgroundImageFix" result="effect1_dropShadow"/>
<feBlend mode="normal" in="SourceGraphic" in2="effect1_dropShadow" result="shape"/>
</filter>
<linearGradient id="paint0_linear" x1="535.795" y1="436.349" x2="535.795" y2="461.96" gradientUnits="userSpaceOnUse">
<stop stop-color="#EFA6C4"/>
<stop offset="0.520833" stop-color="#724F8B"/>
<stop offset="1" stop-color="#312057"/>
</linearGradient>
<linearGradient id="paint1_linear" x1="535.649" y1="435.78" x2="535.649" y2="463.383" gradientUnits="userSpaceOnUse">
<stop stop-color="#EFA6C4"/>
<stop offset="0.520833" stop-color="#724F8B"/>
<stop offset="1" stop-color="#312057"/>
</linearGradient>
<linearGradient id="paint2_linear" x1="535.356" y1="434.926" x2="535.356" y2="464.805" gradientUnits="userSpaceOnUse">
<stop stop-color="#EFA6C4"/>
<stop offset="0.520833" stop-color="#724F8B"/>
<stop offset="1" stop-color="#312057"/>
</linearGradient>
<linearGradient id="paint3_linear" x1="535.21" y1="434.073" x2="535.21" y2="466.228" gradientUnits="userSpaceOnUse">
<stop stop-color="#EFA6C4"/>
<stop offset="0.520833" stop-color="#724F8B"/>
<stop offset="1" stop-color="#312057"/>
</linearGradient>
<linearGradient id="paint4_linear" x1="534.918" y1="433.219" x2="534.918" y2="467.936" gradientUnits="userSpaceOnUse">
<stop stop-color="#EFA6C4"/>
<stop offset="0.520833" stop-color="#724F8B"/>
<stop offset="1" stop-color="#312057"/>
</linearGradient>
<linearGradient id="paint5_linear" x1="534.626" y1="432.65" x2="534.626" y2="469.928" gradientUnits="userSpaceOnUse">
<stop stop-color="#EFA6C4"/>
<stop offset="0.520833" stop-color="#724F8B"/>
<stop offset="1" stop-color="#312057"/>
</linearGradient>
<linearGradient id="paint6_linear" x1="535.064" y1="431.796" x2="535.064" y2="471.92" gradientUnits="userSpaceOnUse">
<stop stop-color="#EFA6C4"/>
<stop offset="0.520833" stop-color="#724F8B"/>
<stop offset="1" stop-color="#312057"/>
</linearGradient>
<linearGradient id="paint7_linear" x1="535.356" y1="430.942" x2="535.356" y2="474.196" gradientUnits="userSpaceOnUse">
<stop stop-color="#EFA6C4"/>
<stop offset="0.520833" stop-color="#724F8B"/>
<stop offset="1" stop-color="#312057"/>
</linearGradient>
<linearGradient id="paint8_linear" x1="535.941" y1="430.089" x2="535.941" y2="476.473" gradientUnits="userSpaceOnUse">
<stop stop-color="#EFA6C4"/>
<stop offset="0.520833" stop-color="#724F8B"/>
<stop offset="1" stop-color="#312057"/>
</linearGradient>
<linearGradient id="paint9_linear" x1="536.525" y1="429.519" x2="536.525" y2="479.034" gradientUnits="userSpaceOnUse">
<stop stop-color="#EFA6C4"/>
<stop offset="0.520833" stop-color="#724F8B"/>
<stop offset="1" stop-color="#312057"/>
</linearGradient>
<linearGradient id="paint10_linear" x1="537.11" y1="428.95" x2="537.11" y2="481.595" gradientUnits="userSpaceOnUse">
<stop stop-color="#EFA6C4"/>
<stop offset="0.520833" stop-color="#724F8B"/>
<stop offset="1" stop-color="#312057"/>
</linearGradient>
<linearGradient id="paint11_linear" x1="537.694" y1="428.097" x2="537.694" y2="484.725" gradientUnits="userSpaceOnUse">
<stop stop-color="#EFA6C4"/>
<stop offset="0.520833" stop-color="#724F8B"/>
<stop offset="1" stop-color="#312057"/>
</linearGradient>
<linearGradient id="paint12_linear" x1="538.425" y1="427.528" x2="538.425" y2="487.855" gradientUnits="userSpaceOnUse">
<stop stop-color="#EFA6C4"/>
<stop offset="0.520833" stop-color="#724F8B"/>
<stop offset="1" stop-color="#312057"/>
</linearGradient>
<linearGradient id="paint13_linear" x1="539.301" y1="427.243" x2="539.301" y2="491.27" gradientUnits="userSpaceOnUse">
<stop stop-color="#EFA6C4"/>
<stop offset="0.520833" stop-color="#724F8B"/>
<stop offset="1" stop-color="#312057"/>
</linearGradient>
<linearGradient id="paint14_linear" x1="540.324" y1="426.674" x2="540.324" y2="494.969" gradientUnits="userSpaceOnUse">
<stop stop-color="#EFA6C4"/>
<stop offset="0.520833" stop-color="#724F8B"/>
<stop offset="1" stop-color="#312057"/>
</linearGradient>
<linearGradient id="paint15_linear" x1="541.493" y1="426.389" x2="541.493" y2="498.953" gradientUnits="userSpaceOnUse">
<stop stop-color="#EFA6C4"/>
<stop offset="0.520833" stop-color="#724F8B"/>
<stop offset="1" stop-color="#312057"/>
</linearGradient>
<linearGradient id="paint16_linear" x1="542.662" y1="426.105" x2="542.662" y2="503.222" gradientUnits="userSpaceOnUse">
<stop stop-color="#EFA6C4"/>
<stop offset="0.520833" stop-color="#724F8B"/>
<stop offset="1" stop-color="#312057"/>
</linearGradient>
<linearGradient id="paint17_linear" x1="543.977" y1="426.105" x2="543.977" y2="507.775" gradientUnits="userSpaceOnUse">
<stop stop-color="#EFA6C4"/>
<stop offset="0.520833" stop-color="#724F8B"/>
<stop offset="1" stop-color="#312057"/>
</linearGradient>
<linearGradient id="paint18_linear" x1="545.438" y1="426.389" x2="545.438" y2="512.612" gradientUnits="userSpaceOnUse">
<stop stop-color="#EFA6C4"/>
<stop offset="0.520833" stop-color="#724F8B"/>
<stop offset="1" stop-color="#312057"/>
</linearGradient>
<linearGradient id="paint19_linear" x1="547.045" y1="426.674" x2="547.045" y2="517.734" gradientUnits="userSpaceOnUse">
<stop stop-color="#EFA6C4"/>
<stop offset="0.520833" stop-color="#724F8B"/>
<stop offset="1" stop-color="#312057"/>
</linearGradient>
<linearGradient id="paint20_linear" x1="548.945" y1="427.243" x2="548.945" y2="523.426" gradientUnits="userSpaceOnUse">
<stop stop-color="#EFA6C4"/>
<stop offset="0.520833" stop-color="#724F8B"/>
<stop offset="1" stop-color="#312057"/>
</linearGradient>
<linearGradient id="paint21_linear" x1="550.844" y1="423.828" x2="550.844" y2="529.117" gradientUnits="userSpaceOnUse">
<stop stop-color="#EFA6C4"/>
<stop offset="0.520833" stop-color="#724F8B"/>
<stop offset="1" stop-color="#312057"/>
</linearGradient>
<linearGradient id="paint22_linear" x1="553.036" y1="420.129" x2="553.036" y2="535.662" gradientUnits="userSpaceOnUse">
<stop stop-color="#EFA6C4"/>
<stop offset="0.520833" stop-color="#724F8B"/>
<stop offset="1" stop-color="#312057"/>
</linearGradient>
<linearGradient id="paint23_linear" x1="555.52" y1="416.145" x2="555.52" y2="542.207" gradientUnits="userSpaceOnUse">
<stop stop-color="#EFA6C4"/>
<stop offset="0.520833" stop-color="#724F8B"/>
<stop offset="1" stop-color="#312057"/>
</linearGradient>
<linearGradient id="paint24_linear" x1="558.15" y1="411.592" x2="558.15" y2="549.321" gradientUnits="userSpaceOnUse">
<stop stop-color="#EFA6C4"/>
<stop offset="0.520833" stop-color="#724F8B"/>
<stop offset="1" stop-color="#312057"/>
</linearGradient>
<linearGradient id="paint25_linear" x1="560.926" y1="406.754" x2="560.926" y2="556.719" gradientUnits="userSpaceOnUse">
<stop stop-color="#EFA6C4"/>
<stop offset="0.520833" stop-color="#724F8B"/>
<stop offset="1" stop-color="#312057"/>
</linearGradient>
<linearGradient id="paint26_linear" x1="564.141" y1="401.632" x2="564.141" y2="564.687" gradientUnits="userSpaceOnUse">
<stop stop-color="#EFA6C4"/>
<stop offset="0.520833" stop-color="#724F8B"/>
<stop offset="1" stop-color="#312057"/>
</linearGradient>
<linearGradient id="paint27_linear" x1="567.501" y1="395.941" x2="567.501" y2="573.224" gradientUnits="userSpaceOnUse">
<stop stop-color="#EFA6C4"/>
<stop offset="0.520833" stop-color="#724F8B"/>
<stop offset="1" stop-color="#312057"/>
</linearGradient>
<linearGradient id="paint28_linear" x1="571.446" y1="389.68" x2="571.446" y2="582.046" gradientUnits="userSpaceOnUse">
<stop stop-color="#EFA6C4"/>
<stop offset="0.520833" stop-color="#724F8B"/>
<stop offset="1" stop-color="#312057"/>
</linearGradient>
<linearGradient id="paint29_linear" x1="575.391" y1="382.566" x2="575.391" y2="591.436" gradientUnits="userSpaceOnUse">
<stop stop-color="#EFA6C4"/>
<stop offset="0.520833" stop-color="#724F8B"/>
<stop offset="1" stop-color="#312057"/>
</linearGradient>
<linearGradient id="paint30_linear" x1="579.775" y1="375.168" x2="579.775" y2="601.111" gradientUnits="userSpaceOnUse">
<stop stop-color="#EFA6C4"/>
<stop offset="0.520833" stop-color="#724F8B"/>
<stop offset="1" stop-color="#312057"/>
</linearGradient>
<linearGradient id="paint31_linear" x1="584.596" y1="367.2" x2="584.596" y2="611.356" gradientUnits="userSpaceOnUse">
<stop stop-color="#EFA6C4"/>
<stop offset="0.520833" stop-color="#724F8B"/>
<stop offset="1" stop-color="#312057"/>
</linearGradient>
<linearGradient id="paint32_linear" x1="589.71" y1="358.378" x2="589.71" y2="622.169" gradientUnits="userSpaceOnUse">
<stop stop-color="#EFA6C4"/>
<stop offset="0.520833" stop-color="#724F8B"/>
<stop offset="1" stop-color="#312057"/>
</linearGradient>
<linearGradient id="paint33_linear" x1="595.409" y1="348.988" x2="595.409" y2="633.552" gradientUnits="userSpaceOnUse">
<stop stop-color="#EFA6C4"/>
<stop offset="0.520833" stop-color="#724F8B"/>
<stop offset="1" stop-color="#312057"/>
</linearGradient>
<linearGradient id="paint34_linear" x1="601.399" y1="338.744" x2="601.399" y2="645.219" gradientUnits="userSpaceOnUse">
<stop stop-color="#EFA6C4"/>
<stop offset="0.520833" stop-color="#724F8B"/>
<stop offset="1" stop-color="#312057"/>
</linearGradient>
<linearGradient id="paint35_linear" x1="608.12" y1="327.93" x2="608.12" y2="657.455" gradientUnits="userSpaceOnUse">
<stop stop-color="#EFA6C4"/>
<stop offset="0.520833" stop-color="#724F8B"/>
<stop offset="1" stop-color="#312057"/>
</linearGradient>
<linearGradient id="paint36_linear" x1="608.704" y1="315.979" x2="608.704" y2="670.26" gradientUnits="userSpaceOnUse">
<stop stop-color="#EFA6C4"/>
<stop offset="0.520833" stop-color="#724F8B"/>
<stop offset="1" stop-color="#312057"/>
</linearGradient>
<linearGradient id="paint37_linear" x1="608.997" y1="303.173" x2="608.997" y2="683.35" gradientUnits="userSpaceOnUse">
<stop stop-color="#EFA6C4"/>
<stop offset="0.520833" stop-color="#724F8B"/>
<stop offset="1" stop-color="#312057"/>
</linearGradient>
<linearGradient id="paint38_linear" x1="608.851" y1="289.514" x2="608.851" y2="697.01" gradientUnits="userSpaceOnUse">
<stop stop-color="#EFA6C4"/>
<stop offset="0.520833" stop-color="#724F8B"/>
<stop offset="1" stop-color="#312057"/>
</linearGradient>
<linearGradient id="paint39_linear" x1="608.12" y1="274.717" x2="608.12" y2="710.953" gradientUnits="userSpaceOnUse">
<stop stop-color="#EFA6C4"/>
<stop offset="0.520833" stop-color="#724F8B"/>
<stop offset="1" stop-color="#312057"/>
</linearGradient>
<linearGradient id="paint40_linear" x1="606.805" y1="258.781" x2="606.805" y2="725.466" gradientUnits="userSpaceOnUse">
<stop stop-color="#EFA6C4"/>
<stop offset="0.520833" stop-color="#724F8B"/>
<stop offset="1" stop-color="#312057"/>
</linearGradient>
<linearGradient id="paint41_linear" x1="604.614" y1="241.707" x2="604.614" y2="739.979" gradientUnits="userSpaceOnUse">
<stop stop-color="#EFA6C4"/>
<stop offset="0.520833" stop-color="#724F8B"/>
<stop offset="1" stop-color="#312057"/>
</linearGradient>
<linearGradient id="paint42_linear" x1="601.837" y1="223.495" x2="601.837" y2="755.06" gradientUnits="userSpaceOnUse">
<stop stop-color="#EFA6C4"/>
<stop offset="0.520833" stop-color="#724F8B"/>
<stop offset="1" stop-color="#312057"/>
</linearGradient>
<linearGradient id="paint43_linear" x1="598.039" y1="204.145" x2="598.039" y2="770.427" gradientUnits="userSpaceOnUse">
<stop stop-color="#EFA6C4"/>
<stop offset="0.520833" stop-color="#724F8B"/>
<stop offset="1" stop-color="#312057"/>
</linearGradient>
<linearGradient id="paint44_linear" x1="593.217" y1="183.372" x2="593.217" y2="785.793" gradientUnits="userSpaceOnUse">
<stop stop-color="#EFA6C4"/>
<stop offset="0.520833" stop-color="#724F8B"/>
<stop offset="1" stop-color="#312057"/>
</linearGradient>
<linearGradient id="paint45_linear" x1="587.372" y1="161.176" x2="587.372" y2="801.16" gradientUnits="userSpaceOnUse">
<stop stop-color="#EFA6C4"/>
<stop offset="0.520833" stop-color="#724F8B"/>
<stop offset="1" stop-color="#312057"/>
</linearGradient>
<linearGradient id="paint46_linear" x1="580.067" y1="137.842" x2="580.067" y2="816.811" gradientUnits="userSpaceOnUse">
<stop stop-color="#EFA6C4"/>
<stop offset="0.520833" stop-color="#724F8B"/>
<stop offset="1" stop-color="#312057"/>
</linearGradient>
<linearGradient id="paint47_linear" x1="571.153" y1="112.8" x2="571.153" y2="832.177" gradientUnits="userSpaceOnUse">
<stop stop-color="#EFA6C4"/>
<stop offset="0.520833" stop-color="#724F8B"/>
<stop offset="1" stop-color="#312057"/>
</linearGradient>
<linearGradient id="paint48_linear" x1="560.926" y1="86.051" x2="560.926" y2="847.259" gradientUnits="userSpaceOnUse">
<stop stop-color="#EFA6C4"/>
<stop offset="0.520833" stop-color="#724F8B"/>
<stop offset="1" stop-color="#312057"/>
</linearGradient>
<linearGradient id="paint49_linear" x1="548.652" y1="57.8791" x2="548.652" y2="861.772" gradientUnits="userSpaceOnUse">
<stop stop-color="#EFA6C4"/>
<stop offset="0.520833" stop-color="#724F8B"/>
<stop offset="1" stop-color="#312057"/>
</linearGradient>
<linearGradient id="paint50_linear" x1="534.626" y1="28" x2="534.626" y2="876" gradientUnits="userSpaceOnUse">
<stop stop-color="#EFA6C4"/>
<stop offset="0.520833" stop-color="#724F8B"/>
<stop offset="1" stop-color="#312057"/>
</linearGradient>
</defs>
</svg>
