<?xml version="1.0" encoding="utf-8"?>
<!-- Generator: Adobe Illustrator 26.0.1, SVG Export Plug-In . SVG Version: 6.00 Build 0)  -->
<svg version="1.1" id="Слой_3" xmlns="http://www.w3.org/2000/svg" xmlns:xlink="http://www.w3.org/1999/xlink" x="0px" y="0px"
	 viewBox="0 0 2000 2000" style="enable-background:new 0 0 2000 2000;" xml:space="preserve">
<style type="text/css">
	.st0{fill:#35A5F9;}
	.st1{fill:#00E25B;}
	.st2{fill:#FFFFFF;}
	.st3{opacity:0.5;}
	.st4{opacity:0.56;fill:#FFFFFF;}
	.st5{opacity:0.56;}
	.st6{opacity:0.5;fill:#FFFFFF;}
</style>
<g>
	<circle class="st0" cx="1025.5" cy="948.5" r="667.5"/>
</g>
<g>
	<path class="st1" d="M1041,452c-45,140,243,53,220,145s-418-77-465,73s248,61,245,216c-2.34,120.93,451.25,112.81,650.76,103.4
		c0.82-13.53,1.24-27.17,1.24-40.9c0-187.88-77.63-357.63-202.56-478.93C1309.49,417.28,1068.71,365.8,1041,452z"/>
	<path class="st1" d="M758,1489c230-7,169-97,150-178s169-97,117.5-180.07S623,1224,573,1112s124-69,93-202
		c-21.09-90.49-197.26-29.14-307.72,19.32c-0.18,6.37-0.28,12.77-0.28,19.18c0,221.54,107.93,417.87,274.07,539.28
		C668.06,1489.78,709.84,1490.47,758,1489z"/>
</g>
<g>
	<path class="st2" d="M770,412c33,5,47.24-51.64,73.12-43.82C869,376,914,407,969,400s54.98-89.27,101.99-75.64
		c47.01,13.64,62.12,50.79,102.07,43.21c21.81-4.14,67.2-22.11,103.93-37.58c-77.62-31.59-162.52-49-251.48-49
		c-112.1,0-217.75,27.64-310.5,76.47C729.86,381.08,751.19,409.15,770,412z"/>
	<path class="st2" d="M1161,1560c-64,3-38-93-104-88s-60,57-171,55c-50.87-0.92-89.53,17.7-116.5,38.13
		c78.84,32.77,165.3,50.87,256,50.87c117.13,0,227.2-30.18,322.89-83.17c-15.87-6-36.12-10.51-61.39-10.83
		C1208,1521,1225,1557,1161,1560z"/>
</g>
<path class="st2" d="M1152,1461c4-21,15-25,53-20s37,31,37,31s-3,34-31,33S1148,1482,1152,1461z"/>
<path class="st1" d="M845,854c10-12,53-18,69,9s20,20,36,18s19,2,22,6s-6,32-30,25s-26,20-48,22s-2-10-24-28s-30.54-6.08-36-17
	C828,877,835,866,845,854z"/>
<g>
	<path class="st1" d="M533,631c-69,1,5-30-51.77-32.21c-9.52-0.37-17.85,0.12-25.13,1.2c-13.28,21.66-25.37,44.13-36.16,67.32
		c23.82,14.31,57.05,11.95,85.06,15.69C535,687,602,630,533,631z"/>
</g>
<path class="st1" d="M1164,1252c-28,0-67,32-51,65s39,17,41-17s30,3,37-17S1192,1252,1164,1252z"/>
<g class="st3">
	<g>
		<path class="st2" d="M358.03,943.69c-0.01,1.6-0.03,3.21-0.03,4.81c0,79.2,13.8,155.16,39.12,225.65
			C500.31,1157.1,616.86,1120.14,770,1091c178.54-33.97,654.88-6.65,905.23,11.11c11.58-49.18,17.73-100.45,17.77-153.16
			C1394.04,926.09,704.9,936.5,358.03,943.69z"/>
	</g>
	<path class="st4" d="M358.03,943.69c-0.01,1.6-0.03,3.21-0.03,4.81c0,79.2,13.8,155.16,39.12,225.65
		C500.31,1157.1,616.86,1120.14,770,1091c178.54-33.97,654.88-6.65,905.23,11.11c11.58-49.18,17.73-100.45,17.77-153.16
		C1394.04,926.09,704.9,936.5,358.03,943.69z"/>
	<g>
		<path class="st2" d="M489.21,1345.99c20.64,27.81,43.4,53.95,68.03,78.2c174.06-47.63,292.8-2.67,440-22.66
			c123.98-16.83,314.81,45.55,421.86,86.13c54.28-39.69,102.33-87.38,142.43-141.33c-211.49-12.01-359.66-120.6-502.5-151.31
			C901.86,1161.23,583.91,1301.68,489.21,1345.99z"/>
	</g>
	<path class="st4" d="M489.21,1345.99c20.64,27.81,43.4,53.95,68.03,78.2c174.06-47.63,292.8-2.67,440-22.66
		c123.98-16.83,314.81,45.55,421.86,86.13c54.28-39.69,102.33-87.38,142.43-141.33c-211.49-12.01-359.66-120.6-502.5-151.31
		C901.86,1161.23,583.91,1301.68,489.21,1345.99z"/>
</g>
<g class="st5">
	<path class="st2" d="M1349,516c-97,86-128,121-408,3c-169.48-71.42-336.39-27.19-441.76,18.85
		C441.2,612.12,398.55,699,376.06,793.69c108.64-14.8,248.59-43.06,296.77-93.64c82.82-86.96,259.18,3.96,386.21,32.12
		c127.03,28.16,315.97-26.16,404.21-91.23c40.21-29.65,96.46-27.69,145.79-16.78c-25.5-45.79-56.24-88.25-91.4-126.6
		C1451.83,483.74,1386.59,482.67,1349,516z"/>
	<path class="st6" d="M1349,516c-97,86-128,121-408,3c-169.48-71.42-336.39-27.19-441.76,18.85
		C441.2,612.12,398.55,699,376.06,793.69c108.64-14.8,248.59-43.06,296.77-93.64c82.82-86.96,259.18,3.96,386.21,32.12
		c127.03,28.16,315.97-26.16,404.21-91.23c40.21-29.65,96.46-27.69,145.79-16.78c-25.5-45.79-56.24-88.25-91.4-126.6
		C1451.83,483.74,1386.59,482.67,1349,516z"/>
</g>
</svg>
